<svg xmlns="http://www.w3.org/2000/svg" version="1.1" xmlns:xlink="http://www.w3.org/1999/xlink" xmlns:svgjs="http://svgjs.dev/svgjs" width="1440" height="560" preserveAspectRatio="none" viewBox="0 0 1440 560"><g mask="url(&quot;#SvgjsMask1002&quot;)" fill="none"><rect width="1440" height="560" x="0" y="0" fill="rgba(242, 247, 243, 1)"></rect><path d="M1299.2062479614963 205.513840944599L1267.1408846474183 142.58202204155018 1188.775837949884 222.1459764641915z" fill="rgba(169, 197, 46, 1)" class="triangle-float3"></path><path d="M443.6430252282413 376.7559442142487L481.8556738673464 481.74433348774346 586.8440631408412 443.53168484863835 548.6314145017361 338.5432955751436z" fill="rgba(169, 197, 46, 1)" class="triangle-float3"></path><path d="M430.23475904107823 285.73021930349427L319.98467685732476 319.43705206040653 353.691509614237 429.68713424416 463.9415917979905 395.98030148724774z" fill="rgba(169, 197, 46, 1)" class="triangle-float2"></path><path d="M546.09,783.399C599.205,783.73,645.866,750.709,672.123,704.537C698.067,658.915,698.95,604.075,674.466,557.653C648.135,507.729,602.481,467.965,546.09,465.575C485.756,463.018,425.211,492.321,397.371,545.909C371.164,596.353,392.58,654.804,422.75,702.982C450.669,747.566,493.487,783.071,546.09,783.399" fill="rgba(169, 197, 46, 1)" class="triangle-float2"></path><path d="M78.303,598.339C126.799,599.607,173.106,574.798,197.157,532.667C221.019,490.868,219.655,437.869,192.657,398.024C168.327,362.117,121.615,354.959,78.303,357.256C39.651,359.306,4.069,376.542,-16.809,409.134C-39.616,444.738,-49.242,488.942,-30.251,526.72C-9.383,568.233,31.856,597.124,78.303,598.339" fill="rgba(169, 197, 46, 1)" class="triangle-float1"></path><path d="M1110.6237786678155 256.71347653206993L1244.0876280066798 273.10077666955385 1260.4749281441636 139.63692733068953 1127.0110788052993 123.24962719320564z" fill="rgba(169, 197, 46, 1)" class="triangle-float3"></path><path d="M997.106,533.007C1052.717,535.089,1094.629,486.458,1119.522,436.686C1141.665,392.411,1140.394,340.424,1114.533,298.212C1089.807,257.852,1044.395,238.886,997.106,236.87C945.269,234.66,886.382,242.176,860.954,287.402C835.817,332.11,864.735,383.219,889.602,428.077C915.623,475.017,943.474,530.999,997.106,533.007" fill="rgba(169, 197, 46, 1)" class="triangle-float3"></path></g><defs><mask id="SvgjsMask1002"><rect width="1440" height="560" fill="#ffffff"></rect></mask><style>
                @keyframes float1 {
                    0%{transform: translate(0, 0)}
                    50%{transform: translate(-10px, 0)}
                    100%{transform: translate(0, 0)}
                }

                .triangle-float1 {
                    animation: float1 5s infinite;
                }

                @keyframes float2 {
                    0%{transform: translate(0, 0)}
                    50%{transform: translate(-5px, -5px)}
                    100%{transform: translate(0, 0)}
                }

                .triangle-float2 {
                    animation: float2 4s infinite;
                }

                @keyframes float3 {
                    0%{transform: translate(0, 0)}
                    50%{transform: translate(0, -10px)}
                    100%{transform: translate(0, 0)}
                }

                .triangle-float3 {
                    animation: float3 6s infinite;
                }
            </style></defs></svg>