<svg xmlns="http://www.w3.org/2000/svg" version="1.1" xmlns:xlink="http://www.w3.org/1999/xlink" width="512" height="512" x="0" y="0" viewBox="0 0 512.002 512.002" style="enable-background:new 0 0 512 512" xml:space="preserve" class=""><g><path d="m127.384 415.718-73.874 78.75c-9.567 10.198-26.087 9.889-35.975 0-9.888-9.889-10.204-26.403 0-35.975l79.017-74.123" style="fill-rule:evenodd;clip-rule:evenodd;stroke-width:20.0001;stroke-linecap:round;stroke-linejoin:round;stroke-miterlimit:22.9256;" fill-rule="evenodd" clip-rule="evenodd" fill="none" stroke="#000000" stroke-width="20.0001" stroke-linecap="round" stroke-linejoin="round" stroke-miterlimit="22.9256" data-original="#000000" class=""></path><circle cx="192" cy="320.003" r="112.496" style="fill-rule:evenodd;clip-rule:evenodd;stroke-width:20.0001;stroke-linecap:round;stroke-linejoin:round;stroke-miterlimit:22.9256;" transform="rotate(-45.001 191.998 320.007)" fill-rule="evenodd" clip-rule="evenodd" fill="none" stroke="#000000" stroke-width="20.0001" stroke-linecap="round" stroke-linejoin="round" stroke-miterlimit="22.9256" data-original="#000000" class=""></circle><path d="M152.002 209.836V10h260l90 90v380h-350v-49.829" style="fill-rule:evenodd;clip-rule:evenodd;stroke-width:20.0001;stroke-linecap:round;stroke-linejoin:round;stroke-miterlimit:22.9256;" fill-rule="evenodd" clip-rule="evenodd" fill="none" stroke="#000000" stroke-width="20.0001" stroke-linecap="round" stroke-linejoin="round" stroke-miterlimit="22.9256" data-original="#000000" class=""></path><path d="M497.001 100h-84.999V15M207.002 55h160M207.002 100h80M207.002 162.501h250M302.201 207.5h154.801M347.888 297.5h109.114M347.889 342.5h54.556M334.331 387.499h122.671M302.209 432.499h29.793M225.751 297.503l-45.001 45.001-22.5-22.5" style="fill-rule:evenodd;clip-rule:evenodd;stroke-width:20.0001;stroke-linecap:round;stroke-linejoin:round;stroke-miterlimit:22.9256;" fill-rule="evenodd" clip-rule="evenodd" fill="none" stroke="#000000" stroke-width="20.0001" stroke-linecap="round" stroke-linejoin="round" stroke-miterlimit="22.9256" data-original="#000000" class=""></path></g></svg>