<svg xmlns="http://www.w3.org/2000/svg" version="1.1" xmlns:xlink="http://www.w3.org/1999/xlink" xmlns:svgjs="http://svgjs.dev/svgjs" width="1440" height="560" preserveAspectRatio="none" viewBox="0 0 1440 560"><g mask="url(&quot;#SvgjsMask1006&quot;)" fill="none"><path d="M-99.88 517.39L-99.88 517.39" stroke="rgba(196, 196, 196, 1)" stroke-width="1.5"></path><path d="M-99.88 517.39L-47.77 675.13" stroke="rgba(196, 196, 196, 1)" stroke-width="1.5"></path><path d="M-99.88 517.39L97.16 548.43" stroke="rgba(196, 196, 196, 1)" stroke-width="1.5"></path><path d="M-47.77 675.13L-47.77 675.13" stroke="rgba(196, 196, 196, 1)" stroke-width="1.5"></path><path d="M-47.77 675.13L96.31 671.53" stroke="rgba(196, 196, 196, 1)" stroke-width="1.5"></path><path d="M-47.77 675.13L97.16 548.43" stroke="rgba(196, 196, 196, 1)" stroke-width="1.5"></path><path d="M-47.77 675.13L191.97 658.35" stroke="rgba(196, 196, 196, 1)" stroke-width="1.5"></path><path d="M-47.77 675.13L215.32 551.31" stroke="rgba(196, 196, 196, 1)" stroke-width="1.5"></path><path d="M-47.77 675.13L73.1 388.07" stroke="rgba(196, 196, 196, 1)" stroke-width="1.5"></path><path d="M73.1 388.07L73.1 388.07" stroke="rgba(196, 196, 196, 1)" stroke-width="1.5"></path><path d="M73.1 388.07L219.28 383.45" stroke="rgba(196, 196, 196, 1)" stroke-width="1.5"></path><path d="M73.1 388.07L97.16 548.43" stroke="rgba(196, 196, 196, 1)" stroke-width="1.5"></path><path d="M73.1 388.07L-99.88 517.39" stroke="rgba(196, 196, 196, 1)" stroke-width="1.5"></path><path d="M97.16 548.43L97.16 548.43" stroke="rgba(196, 196, 196, 1)" stroke-width="1.5"></path><path d="M97.16 548.43L215.32 551.31" stroke="rgba(196, 196, 196, 1)" stroke-width="1.5"></path><path d="M97.16 548.43L96.31 671.53" stroke="rgba(196, 196, 196, 1)" stroke-width="1.5"></path><path d="M97.16 548.43L191.97 658.35" stroke="rgba(196, 196, 196, 1)" stroke-width="1.5"></path><path d="M96.31 671.53L96.31 671.53" stroke="rgba(196, 196, 196, 1)" stroke-width="1.5"></path><path d="M96.31 671.53L191.97 658.35" stroke="rgba(196, 196, 196, 1)" stroke-width="1.5"></path><path d="M219.28 383.45L219.28 383.45" stroke="rgba(196, 196, 196, 1)" stroke-width="1.5"></path><path d="M219.28 383.45L215.32 551.31" stroke="rgba(196, 196, 196, 1)" stroke-width="1.5"></path><path d="M219.28 383.45L97.16 548.43" stroke="rgba(196, 196, 196, 1)" stroke-width="1.5"></path><path d="M219.28 383.45L357.66 555.04" stroke="rgba(196, 196, 196, 1)" stroke-width="1.5"></path><path d="M219.28 383.45L191.97 658.35" stroke="rgba(196, 196, 196, 1)" stroke-width="1.5"></path><path d="M215.32 551.31L215.32 551.31" stroke="rgba(196, 196, 196, 1)" stroke-width="1.5"></path><path d="M215.32 551.31L191.97 658.35" stroke="rgba(196, 196, 196, 1)" stroke-width="1.5"></path><path d="M191.97 658.35L191.97 658.35" stroke="rgba(196, 196, 196, 1)" stroke-width="1.5"></path><path d="M191.97 658.35L357.66 555.04" stroke="rgba(196, 196, 196, 1)" stroke-width="1.5"></path><path d="M191.97 658.35L400.82 637.88" stroke="rgba(196, 196, 196, 1)" stroke-width="1.5"></path><path d="M357.66 555.04L357.66 555.04" stroke="rgba(196, 196, 196, 1)" stroke-width="1.5"></path><path d="M357.66 555.04L400.82 637.88" stroke="rgba(196, 196, 196, 1)" stroke-width="1.5"></path><path d="M357.66 555.04L215.32 551.31" stroke="rgba(196, 196, 196, 1)" stroke-width="1.5"></path><path d="M357.66 555.04L531.2 556.89" stroke="rgba(196, 196, 196, 1)" stroke-width="1.5"></path><path d="M400.82 637.88L400.82 637.88" stroke="rgba(196, 196, 196, 1)" stroke-width="1.5"></path><path d="M400.82 637.88L523.77 710.1" stroke="rgba(196, 196, 196, 1)" stroke-width="1.5"></path><path d="M400.82 637.88L531.2 556.89" stroke="rgba(196, 196, 196, 1)" stroke-width="1.5"></path><path d="M400.82 637.88L215.32 551.31" stroke="rgba(196, 196, 196, 1)" stroke-width="1.5"></path><path d="M499.96 384.94L499.96 384.94" stroke="rgba(196, 196, 196, 1)" stroke-width="1.5"></path><path d="M499.96 384.94L673.38 377.55" stroke="rgba(196, 196, 196, 1)" stroke-width="1.5"></path><path d="M499.96 384.94L531.2 556.89" stroke="rgba(196, 196, 196, 1)" stroke-width="1.5"></path><path d="M499.96 384.94L357.66 555.04" stroke="rgba(196, 196, 196, 1)" stroke-width="1.5"></path><path d="M531.2 556.89L531.2 556.89" stroke="rgba(196, 196, 196, 1)" stroke-width="1.5"></path><path d="M531.2 556.89L523.77 710.1" stroke="rgba(196, 196, 196, 1)" stroke-width="1.5"></path><path d="M531.2 556.89L685.27 518.82" stroke="rgba(196, 196, 196, 1)" stroke-width="1.5"></path><path d="M523.77 710.1L523.77 710.1" stroke="rgba(196, 196, 196, 1)" stroke-width="1.5"></path><path d="M523.77 710.1L357.66 555.04" stroke="rgba(196, 196, 196, 1)" stroke-width="1.5"></path><path d="M523.77 710.1L685.27 518.82" stroke="rgba(196, 196, 196, 1)" stroke-width="1.5"></path><path d="M523.77 710.1L799.8 677.87" stroke="rgba(196, 196, 196, 1)" stroke-width="1.5"></path><path d="M523.77 710.1L499.96 384.94" stroke="rgba(196, 196, 196, 1)" stroke-width="1.5"></path><path d="M686.76 222.98L686.76 222.98" stroke="rgba(196, 196, 196, 1)" stroke-width="1.5"></path><path d="M686.76 222.98L673.38 377.55" stroke="rgba(196, 196, 196, 1)" stroke-width="1.5"></path><path d="M686.76 222.98L843.07 220.02" stroke="rgba(196, 196, 196, 1)" stroke-width="1.5"></path><path d="M686.76 222.98L817.2 385.63" stroke="rgba(196, 196, 196, 1)" stroke-width="1.5"></path><path d="M686.76 222.98L499.96 384.94" stroke="rgba(196, 196, 196, 1)" stroke-width="1.5"></path><path d="M686.76 222.98L941.85 244.65" stroke="rgba(196, 196, 196, 1)" stroke-width="1.5"></path><path d="M673.38 377.55L673.38 377.55" stroke="rgba(196, 196, 196, 1)" stroke-width="1.5"></path><path d="M673.38 377.55L685.27 518.82" stroke="rgba(196, 196, 196, 1)" stroke-width="1.5"></path><path d="M673.38 377.55L817.2 385.63" stroke="rgba(196, 196, 196, 1)" stroke-width="1.5"></path><path d="M673.38 377.55L790.91 499.56" stroke="rgba(196, 196, 196, 1)" stroke-width="1.5"></path><path d="M685.27 518.82L685.27 518.82" stroke="rgba(196, 196, 196, 1)" stroke-width="1.5"></path><path d="M685.27 518.82L790.91 499.56" stroke="rgba(196, 196, 196, 1)" stroke-width="1.5"></path><path d="M685.27 518.82L817.2 385.63" stroke="rgba(196, 196, 196, 1)" stroke-width="1.5"></path><path d="M685.27 518.82L799.8 677.87" stroke="rgba(196, 196, 196, 1)" stroke-width="1.5"></path><path d="M685.27 518.82L499.96 384.94" stroke="rgba(196, 196, 196, 1)" stroke-width="1.5"></path><path d="M843.07 220.02L843.07 220.02" stroke="rgba(196, 196, 196, 1)" stroke-width="1.5"></path><path d="M843.07 220.02L941.85 244.65" stroke="rgba(196, 196, 196, 1)" stroke-width="1.5"></path><path d="M843.07 220.02L817.2 385.63" stroke="rgba(196, 196, 196, 1)" stroke-width="1.5"></path><path d="M817.2 385.63L817.2 385.63" stroke="rgba(196, 196, 196, 1)" stroke-width="1.5"></path><path d="M817.2 385.63L790.91 499.56" stroke="rgba(196, 196, 196, 1)" stroke-width="1.5"></path><path d="M817.2 385.63L941.85 244.65" stroke="rgba(196, 196, 196, 1)" stroke-width="1.5"></path><path d="M790.91 499.56L790.91 499.56" stroke="rgba(196, 196, 196, 1)" stroke-width="1.5"></path><path d="M790.91 499.56L799.8 677.87" stroke="rgba(196, 196, 196, 1)" stroke-width="1.5"></path><path d="M790.91 499.56L987.64 557.09" stroke="rgba(196, 196, 196, 1)" stroke-width="1.5"></path><path d="M790.91 499.56L949.32 652.29" stroke="rgba(196, 196, 196, 1)" stroke-width="1.5"></path><path d="M799.8 677.87L799.8 677.87" stroke="rgba(196, 196, 196, 1)" stroke-width="1.5"></path><path d="M799.8 677.87L949.32 652.29" stroke="rgba(196, 196, 196, 1)" stroke-width="1.5"></path><path d="M983.64 -70.01L983.64 -70.01" stroke="rgba(196, 196, 196, 1)" stroke-width="1.5"></path><path d="M983.64 -70.01L957.76 65.42" stroke="rgba(196, 196, 196, 1)" stroke-width="1.5"></path><path d="M983.64 -70.01L1114.38 86.19" stroke="rgba(196, 196, 196, 1)" stroke-width="1.5"></path><path d="M957.76 65.42L957.76 65.42" stroke="rgba(196, 196, 196, 1)" stroke-width="1.5"></path><path d="M957.76 65.42L1114.38 86.19" stroke="rgba(196, 196, 196, 1)" stroke-width="1.5"></path><path d="M957.76 65.42L941.85 244.65" stroke="rgba(196, 196, 196, 1)" stroke-width="1.5"></path><path d="M957.76 65.42L843.07 220.02" stroke="rgba(196, 196, 196, 1)" stroke-width="1.5"></path><path d="M957.76 65.42L1135.39 256.3" stroke="rgba(196, 196, 196, 1)" stroke-width="1.5"></path><path d="M957.76 65.42L686.76 222.98" stroke="rgba(196, 196, 196, 1)" stroke-width="1.5"></path><path d="M941.85 244.65L941.85 244.65" stroke="rgba(196, 196, 196, 1)" stroke-width="1.5"></path><path d="M987.64 557.09L987.64 557.09" stroke="rgba(196, 196, 196, 1)" stroke-width="1.5"></path><path d="M987.64 557.09L949.32 652.29" stroke="rgba(196, 196, 196, 1)" stroke-width="1.5"></path><path d="M987.64 557.09L1120.36 537.34" stroke="rgba(196, 196, 196, 1)" stroke-width="1.5"></path><path d="M987.64 557.09L1105.53 659.95" stroke="rgba(196, 196, 196, 1)" stroke-width="1.5"></path><path d="M987.64 557.09L1091.66 407.31" stroke="rgba(196, 196, 196, 1)" stroke-width="1.5"></path><path d="M949.32 652.29L949.32 652.29" stroke="rgba(196, 196, 196, 1)" stroke-width="1.5"></path><path d="M949.32 652.29L1105.53 659.95" stroke="rgba(196, 196, 196, 1)" stroke-width="1.5"></path><path d="M949.32 652.29L1120.36 537.34" stroke="rgba(196, 196, 196, 1)" stroke-width="1.5"></path><path d="M1114.38 86.19L1114.38 86.19" stroke="rgba(196, 196, 196, 1)" stroke-width="1.5"></path><path d="M1135.39 256.3L1135.39 256.3" stroke="rgba(196, 196, 196, 1)" stroke-width="1.5"></path><path d="M1135.39 256.3L1091.66 407.31" stroke="rgba(196, 196, 196, 1)" stroke-width="1.5"></path><path d="M1135.39 256.3L1114.38 86.19" stroke="rgba(196, 196, 196, 1)" stroke-width="1.5"></path><path d="M1135.39 256.3L1307.37 237.26" stroke="rgba(196, 196, 196, 1)" stroke-width="1.5"></path><path d="M1135.39 256.3L941.85 244.65" stroke="rgba(196, 196, 196, 1)" stroke-width="1.5"></path><path d="M1135.39 256.3L1272.36 407.38" stroke="rgba(196, 196, 196, 1)" stroke-width="1.5"></path><path d="M1135.39 256.3L1292.87 78.79" stroke="rgba(196, 196, 196, 1)" stroke-width="1.5"></path><path d="M1091.66 407.31L1091.66 407.31" stroke="rgba(196, 196, 196, 1)" stroke-width="1.5"></path><path d="M1091.66 407.31L1120.36 537.34" stroke="rgba(196, 196, 196, 1)" stroke-width="1.5"></path><path d="M1091.66 407.31L1272.36 407.38" stroke="rgba(196, 196, 196, 1)" stroke-width="1.5"></path><path d="M1091.66 407.31L941.85 244.65" stroke="rgba(196, 196, 196, 1)" stroke-width="1.5"></path><path d="M1120.36 537.34L1120.36 537.34" stroke="rgba(196, 196, 196, 1)" stroke-width="1.5"></path><path d="M1120.36 537.34L1105.53 659.95" stroke="rgba(196, 196, 196, 1)" stroke-width="1.5"></path><path d="M1120.36 537.34L1262.02 557.85" stroke="rgba(196, 196, 196, 1)" stroke-width="1.5"></path><path d="M1120.36 537.34L1272.36 407.38" stroke="rgba(196, 196, 196, 1)" stroke-width="1.5"></path><path d="M1105.53 659.95L1105.53 659.95" stroke="rgba(196, 196, 196, 1)" stroke-width="1.5"></path><path d="M1272.47 -72.48L1272.47 -72.48" stroke="rgba(196, 196, 196, 1)" stroke-width="1.5"></path><path d="M1272.47 -72.48L1388.12 -55.28" stroke="rgba(196, 196, 196, 1)" stroke-width="1.5"></path><path d="M1272.47 -72.48L1292.87 78.79" stroke="rgba(196, 196, 196, 1)" stroke-width="1.5"></path><path d="M1292.87 78.79L1292.87 78.79" stroke="rgba(196, 196, 196, 1)" stroke-width="1.5"></path><path d="M1292.87 78.79L1418.71 111.28" stroke="rgba(196, 196, 196, 1)" stroke-width="1.5"></path><path d="M1292.87 78.79L1307.37 237.26" stroke="rgba(196, 196, 196, 1)" stroke-width="1.5"></path><path d="M1292.87 78.79L1388.12 -55.28" stroke="rgba(196, 196, 196, 1)" stroke-width="1.5"></path><path d="M1292.87 78.79L1114.38 86.19" stroke="rgba(196, 196, 196, 1)" stroke-width="1.5"></path><path d="M1307.37 237.26L1307.37 237.26" stroke="rgba(196, 196, 196, 1)" stroke-width="1.5"></path><path d="M1307.37 237.26L1453.52 194.46" stroke="rgba(196, 196, 196, 1)" stroke-width="1.5"></path><path d="M1272.36 407.38L1272.36 407.38" stroke="rgba(196, 196, 196, 1)" stroke-width="1.5"></path><path d="M1272.36 407.38L1262.02 557.85" stroke="rgba(196, 196, 196, 1)" stroke-width="1.5"></path><path d="M1272.36 407.38L1307.37 237.26" stroke="rgba(196, 196, 196, 1)" stroke-width="1.5"></path><path d="M1262.02 557.85L1262.02 557.85" stroke="rgba(196, 196, 196, 1)" stroke-width="1.5"></path><path d="M1262.02 557.85L1289.96 695.87" stroke="rgba(196, 196, 196, 1)" stroke-width="1.5"></path><path d="M1262.02 557.85L1105.53 659.95" stroke="rgba(196, 196, 196, 1)" stroke-width="1.5"></path><path d="M1262.02 557.85L1455.73 519.04" stroke="rgba(196, 196, 196, 1)" stroke-width="1.5"></path><path d="M1262.02 557.85L1459.84 637.94" stroke="rgba(196, 196, 196, 1)" stroke-width="1.5"></path><path d="M1289.96 695.87L1289.96 695.87" stroke="rgba(196, 196, 196, 1)" stroke-width="1.5"></path><path d="M1289.96 695.87L1459.84 637.94" stroke="rgba(196, 196, 196, 1)" stroke-width="1.5"></path><path d="M1289.96 695.87L1105.53 659.95" stroke="rgba(196, 196, 196, 1)" stroke-width="1.5"></path><path d="M1289.96 695.87L1120.36 537.34" stroke="rgba(196, 196, 196, 1)" stroke-width="1.5"></path><path d="M1289.96 695.87L1455.73 519.04" stroke="rgba(196, 196, 196, 1)" stroke-width="1.5"></path><path d="M1289.96 695.87L1561.57 682.66" stroke="rgba(196, 196, 196, 1)" stroke-width="1.5"></path><path d="M1388.12 -55.28L1388.12 -55.28" stroke="rgba(196, 196, 196, 1)" stroke-width="1.5"></path><path d="M1388.12 -55.28L1418.71 111.28" stroke="rgba(196, 196, 196, 1)" stroke-width="1.5"></path><path d="M1388.12 -55.28L1562.6 -111.97" stroke="rgba(196, 196, 196, 1)" stroke-width="1.5"></path><path d="M1388.12 -55.28L1556.52 92.98" stroke="rgba(196, 196, 196, 1)" stroke-width="1.5"></path><path d="M1418.71 111.28L1418.71 111.28" stroke="rgba(196, 196, 196, 1)" stroke-width="1.5"></path><path d="M1418.71 111.28L1453.52 194.46" stroke="rgba(196, 196, 196, 1)" stroke-width="1.5"></path><path d="M1418.71 111.28L1556.52 92.98" stroke="rgba(196, 196, 196, 1)" stroke-width="1.5"></path><path d="M1418.71 111.28L1307.37 237.26" stroke="rgba(196, 196, 196, 1)" stroke-width="1.5"></path><path d="M1453.52 194.46L1453.52 194.46" stroke="rgba(196, 196, 196, 1)" stroke-width="1.5"></path><path d="M1453.52 194.46L1576.24 231.56" stroke="rgba(196, 196, 196, 1)" stroke-width="1.5"></path><path d="M1453.52 194.46L1556.52 92.98" stroke="rgba(196, 196, 196, 1)" stroke-width="1.5"></path><path d="M1453.52 194.46L1292.87 78.79" stroke="rgba(196, 196, 196, 1)" stroke-width="1.5"></path><path d="M1455.73 519.04L1455.73 519.04" stroke="rgba(196, 196, 196, 1)" stroke-width="1.5"></path><path d="M1455.73 519.04L1459.84 637.94" stroke="rgba(196, 196, 196, 1)" stroke-width="1.5"></path><path d="M1455.73 519.04L1578.33 533.35" stroke="rgba(196, 196, 196, 1)" stroke-width="1.5"></path><path d="M1455.73 519.04L1547.85 407.34" stroke="rgba(196, 196, 196, 1)" stroke-width="1.5"></path><path d="M1455.73 519.04L1561.57 682.66" stroke="rgba(196, 196, 196, 1)" stroke-width="1.5"></path><path d="M1455.73 519.04L1272.36 407.38" stroke="rgba(196, 196, 196, 1)" stroke-width="1.5"></path><path d="M1459.84 637.94L1459.84 637.94" stroke="rgba(196, 196, 196, 1)" stroke-width="1.5"></path><path d="M1459.84 637.94L1561.57 682.66" stroke="rgba(196, 196, 196, 1)" stroke-width="1.5"></path><path d="M1562.6 -111.97L1562.6 -111.97" stroke="rgba(196, 196, 196, 1)" stroke-width="1.5"></path><path d="M1562.6 -111.97L1556.52 92.98" stroke="rgba(196, 196, 196, 1)" stroke-width="1.5"></path><path d="M1562.6 -111.97L1418.71 111.28" stroke="rgba(196, 196, 196, 1)" stroke-width="1.5"></path><path d="M1556.52 92.98L1556.52 92.98" stroke="rgba(196, 196, 196, 1)" stroke-width="1.5"></path><path d="M1556.52 92.98L1576.24 231.56" stroke="rgba(196, 196, 196, 1)" stroke-width="1.5"></path><path d="M1576.24 231.56L1576.24 231.56" stroke="rgba(196, 196, 196, 1)" stroke-width="1.5"></path><path d="M1576.24 231.56L1547.85 407.34" stroke="rgba(196, 196, 196, 1)" stroke-width="1.5"></path><path d="M1576.24 231.56L1418.71 111.28" stroke="rgba(196, 196, 196, 1)" stroke-width="1.5"></path><path d="M1547.85 407.34L1547.85 407.34" stroke="rgba(196, 196, 196, 1)" stroke-width="1.5"></path><path d="M1547.85 407.34L1578.33 533.35" stroke="rgba(196, 196, 196, 1)" stroke-width="1.5"></path><path d="M1547.85 407.34L1453.52 194.46" stroke="rgba(196, 196, 196, 1)" stroke-width="1.5"></path><path d="M1547.85 407.34L1459.84 637.94" stroke="rgba(196, 196, 196, 1)" stroke-width="1.5"></path><path d="M1547.85 407.34L1272.36 407.38" stroke="rgba(196, 196, 196, 1)" stroke-width="1.5"></path><path d="M1578.33 533.35L1578.33 533.35" stroke="rgba(196, 196, 196, 1)" stroke-width="1.5"></path><path d="M1578.33 533.35L1561.57 682.66" stroke="rgba(196, 196, 196, 1)" stroke-width="1.5"></path><path d="M1578.33 533.35L1459.84 637.94" stroke="rgba(196, 196, 196, 1)" stroke-width="1.5"></path><path d="M1561.57 682.66L1561.57 682.66" stroke="rgba(196, 196, 196, 1)" stroke-width="1.5"></path><circle r="5" cx="-99.88" cy="517.39" fill="rgba(196, 196, 196, 1)"></circle><circle r="5" cx="-47.77" cy="675.13" fill="rgba(196, 196, 196, 1)"></circle><circle r="5" cx="73.1" cy="388.07" fill="rgba(196, 196, 196, 1)"></circle><circle r="5" cx="97.16" cy="548.43" fill="rgba(196, 196, 196, 1)"></circle><circle r="5" cx="96.31" cy="671.53" fill="rgba(196, 196, 196, 1)"></circle><circle r="5" cx="219.28" cy="383.45" fill="rgba(196, 196, 196, 1)"></circle><circle r="5" cx="215.32" cy="551.31" fill="rgba(196, 196, 196, 1)"></circle><circle r="5" cx="191.97" cy="658.35" fill="rgba(196, 196, 196, 1)"></circle><circle r="5" cx="357.66" cy="555.04" fill="rgba(196, 196, 196, 1)"></circle><circle r="5" cx="400.82" cy="637.88" fill="rgba(196, 196, 196, 1)"></circle><circle r="5" cx="499.96" cy="384.94" fill="rgba(196, 196, 196, 1)"></circle><circle r="5" cx="531.2" cy="556.89" fill="rgba(196, 196, 196, 1)"></circle><circle r="5" cx="523.77" cy="710.1" fill="rgba(196, 196, 196, 1)"></circle><circle r="5" cx="686.76" cy="222.98" fill="rgba(196, 196, 196, 1)"></circle><circle r="5" cx="673.38" cy="377.55" fill="rgba(196, 196, 196, 1)"></circle><circle r="5" cx="685.27" cy="518.82" fill="rgba(196, 196, 196, 1)"></circle><circle r="5" cx="843.07" cy="220.02" fill="rgba(196, 196, 196, 1)"></circle><circle r="5" cx="817.2" cy="385.63" fill="rgba(196, 196, 196, 1)"></circle><circle r="5" cx="790.91" cy="499.56" fill="rgba(196, 196, 196, 1)"></circle><circle r="5" cx="799.8" cy="677.87" fill="rgba(196, 196, 196, 1)"></circle><circle r="5" cx="983.64" cy="-70.01" fill="rgba(196, 196, 196, 1)"></circle><circle r="5" cx="957.76" cy="65.42" fill="rgba(196, 196, 196, 1)"></circle><circle r="5" cx="941.85" cy="244.65" fill="rgba(196, 196, 196, 1)"></circle><circle r="5" cx="987.64" cy="557.09" fill="rgba(196, 196, 196, 1)"></circle><circle r="5" cx="949.32" cy="652.29" fill="rgba(196, 196, 196, 1)"></circle><circle r="5" cx="1114.38" cy="86.19" fill="rgba(196, 196, 196, 1)"></circle><circle r="5" cx="1135.39" cy="256.3" fill="rgba(196, 196, 196, 1)"></circle><circle r="5" cx="1091.66" cy="407.31" fill="rgba(196, 196, 196, 1)"></circle><circle r="5" cx="1120.36" cy="537.34" fill="rgba(196, 196, 196, 1)"></circle><circle r="5" cx="1105.53" cy="659.95" fill="rgba(196, 196, 196, 1)"></circle><circle r="5" cx="1272.47" cy="-72.48" fill="rgba(196, 196, 196, 1)"></circle><circle r="5" cx="1292.87" cy="78.79" fill="rgba(196, 196, 196, 1)"></circle><circle r="5" cx="1307.37" cy="237.26" fill="rgba(196, 196, 196, 1)"></circle><circle r="5" cx="1272.36" cy="407.38" fill="rgba(196, 196, 196, 1)"></circle><circle r="5" cx="1262.02" cy="557.85" fill="rgba(196, 196, 196, 1)"></circle><circle r="5" cx="1289.96" cy="695.87" fill="rgba(196, 196, 196, 1)"></circle><circle r="5" cx="1388.12" cy="-55.28" fill="rgba(196, 196, 196, 1)"></circle><circle r="5" cx="1418.71" cy="111.28" fill="rgba(196, 196, 196, 1)"></circle><circle r="5" cx="1453.52" cy="194.46" fill="rgba(196, 196, 196, 1)"></circle><circle r="5" cx="1455.73" cy="519.04" fill="rgba(196, 196, 196, 1)"></circle><circle r="5" cx="1459.84" cy="637.94" fill="rgba(196, 196, 196, 1)"></circle><circle r="5" cx="1562.6" cy="-111.97" fill="rgba(196, 196, 196, 1)"></circle><circle r="5" cx="1556.52" cy="92.98" fill="rgba(196, 196, 196, 1)"></circle><circle r="5" cx="1576.24" cy="231.56" fill="rgba(196, 196, 196, 1)"></circle><circle r="5" cx="1547.85" cy="407.34" fill="rgba(196, 196, 196, 1)"></circle><circle r="5" cx="1578.33" cy="533.35" fill="rgba(196, 196, 196, 1)"></circle><circle r="5" cx="1561.57" cy="682.66" fill="rgba(196, 196, 196, 1)"></circle><path d="M514.07 401.08L514.07 401.08" stroke="hsl(71.10000000000002, 62.1%, 61.9%)" stroke-width="1.5"></path><path d="M514.07 401.08L535.62 555.98" stroke="hsl(71.10000000000002, 62.1%, 61.9%)" stroke-width="1.5"></path><path d="M514.07 401.08L370.8 509.14" stroke="hsl(71.10000000000002, 62.1%, 61.9%)" stroke-width="1.5"></path><path d="M514.07 401.08L645.33 527.95" stroke="hsl(71.10000000000002, 62.1%, 61.9%)" stroke-width="1.5"></path><path d="M514.07 401.08L708.54 373.04" stroke="hsl(71.10000000000002, 62.1%, 61.9%)" stroke-width="1.5"></path><path d="M559.15 651.52L559.15 651.52" stroke="hsl(71.10000000000002, 62.1%, 61.9%)" stroke-width="1.5"></path><path d="M559.15 651.52L535.62 555.98" stroke="hsl(71.10000000000002, 62.1%, 61.9%)" stroke-width="1.5"></path><path d="M559.15 651.52L690.95 678.99" stroke="hsl(71.10000000000002, 62.1%, 61.9%)" stroke-width="1.5"></path><path d="M559.15 651.52L645.33 527.95" stroke="hsl(71.10000000000002, 62.1%, 61.9%)" stroke-width="1.5"></path><path d="M559.15 651.52L338.77 691.22" stroke="hsl(71.10000000000002, 62.1%, 61.9%)" stroke-width="1.5"></path><path d="M559.15 651.52L370.8 509.14" stroke="hsl(71.10000000000002, 62.1%, 61.9%)" stroke-width="1.5"></path><path d="M690.95 678.99L690.95 678.99" stroke="hsl(71.10000000000002, 62.1%, 61.9%)" stroke-width="1.5"></path><path d="M690.95 678.99L823.13 688.02" stroke="hsl(71.10000000000002, 62.1%, 61.9%)" stroke-width="1.5"></path><path d="M1104.88 408.07L1104.88 408.07" stroke="hsl(71.10000000000002, 62.1%, 61.9%)" stroke-width="1.5"></path><path d="M1104.88 408.07L1248.26 387.57" stroke="hsl(71.10000000000002, 62.1%, 61.9%)" stroke-width="1.5"></path><path d="M1104.88 408.07L962.5 375.72" stroke="hsl(71.10000000000002, 62.1%, 61.9%)" stroke-width="1.5"></path><path d="M1295.68 232.12L1295.68 232.12" stroke="hsl(71.10000000000002, 62.1%, 61.9%)" stroke-width="1.5"></path><path d="M1295.68 232.12L1408.94 227.5" stroke="hsl(71.10000000000002, 62.1%, 61.9%)" stroke-width="1.5"></path><path d="M1295.68 232.12L1160.29 243.38" stroke="hsl(71.10000000000002, 62.1%, 61.9%)" stroke-width="1.5"></path><path d="M1295.68 232.12L1311.61 80.05" stroke="hsl(71.10000000000002, 62.1%, 61.9%)" stroke-width="1.5"></path><path d="M1295.68 232.12L1248.26 387.57" stroke="hsl(71.10000000000002, 62.1%, 61.9%)" stroke-width="1.5"></path><path d="M1248.26 387.57L1248.26 387.57" stroke="hsl(71.10000000000002, 62.1%, 61.9%)" stroke-width="1.5"></path><path d="M1248.26 387.57L1282.12 546.37" stroke="hsl(71.10000000000002, 62.1%, 61.9%)" stroke-width="1.5"></path><path d="M1261.5 702.63L1261.5 702.63" stroke="hsl(71.10000000000002, 62.1%, 61.9%)" stroke-width="1.5"></path><path d="M1261.5 702.63L1111.51 671.84" stroke="hsl(71.10000000000002, 62.1%, 61.9%)" stroke-width="1.5"></path><path d="M1261.5 702.63L1282.12 546.37" stroke="hsl(71.10000000000002, 62.1%, 61.9%)" stroke-width="1.5"></path><path d="M1419.02 672.42L1419.02 672.42" stroke="hsl(71.10000000000002, 62.1%, 61.9%)" stroke-width="1.5"></path><path d="M1419.02 672.42L1448.83 521.35" stroke="hsl(71.10000000000002, 62.1%, 61.9%)" stroke-width="1.5"></path><path d="M1419.02 672.42L1261.5 702.63" stroke="hsl(71.10000000000002, 62.1%, 61.9%)" stroke-width="1.5"></path><path d="M1585.84 388.55L1585.84 388.55" stroke="hsl(71.10000000000002, 62.1%, 61.9%)" stroke-width="1.5"></path><path d="M1585.84 388.55L1549.4 518.37" stroke="hsl(71.10000000000002, 62.1%, 61.9%)" stroke-width="1.5"></path><path d="M1585.84 388.55L1449.25 379.99" stroke="hsl(71.10000000000002, 62.1%, 61.9%)" stroke-width="1.5"></path><path d="M1585.84 388.55L1604.35 221.52" stroke="hsl(71.10000000000002, 62.1%, 61.9%)" stroke-width="1.5"></path><path d="M-80.95 562.45L-80.95 562.45" stroke="hsl(71.10000000000002, 62.1%, 61.9%)" stroke-width="1.5"></path><path d="M-80.95 562.45L93.27 507.96" stroke="hsl(71.10000000000002, 62.1%, 61.9%)" stroke-width="1.5"></path><path d="M-80.95 562.45L70.44 677.54" stroke="hsl(71.10000000000002, 62.1%, 61.9%)" stroke-width="1.5"></path><path d="M93.27 507.96L93.27 507.96" stroke="hsl(71.10000000000002, 62.1%, 61.9%)" stroke-width="1.5"></path><path d="M93.27 507.96L70.44 677.54" stroke="hsl(71.10000000000002, 62.1%, 61.9%)" stroke-width="1.5"></path><path d="M70.44 677.54L70.44 677.54" stroke="hsl(71.10000000000002, 62.1%, 61.9%)" stroke-width="1.5"></path><path d="M70.44 677.54L231.88 712.01" stroke="hsl(71.10000000000002, 62.1%, 61.9%)" stroke-width="1.5"></path><path d="M231.88 712.01L231.88 712.01" stroke="hsl(71.10000000000002, 62.1%, 61.9%)" stroke-width="1.5"></path><path d="M231.88 712.01L338.77 691.22" stroke="hsl(71.10000000000002, 62.1%, 61.9%)" stroke-width="1.5"></path><path d="M231.88 712.01L370.8 509.14" stroke="hsl(71.10000000000002, 62.1%, 61.9%)" stroke-width="1.5"></path><path d="M231.88 712.01L93.27 507.96" stroke="hsl(71.10000000000002, 62.1%, 61.9%)" stroke-width="1.5"></path><path d="M231.88 712.01L559.15 651.52" stroke="hsl(71.10000000000002, 62.1%, 61.9%)" stroke-width="1.5"></path><path d="M231.88 712.01L535.62 555.98" stroke="hsl(71.10000000000002, 62.1%, 61.9%)" stroke-width="1.5"></path><path d="M370.8 509.14L370.8 509.14" stroke="hsl(71.10000000000002, 62.1%, 61.9%)" stroke-width="1.5"></path><path d="M370.8 509.14L535.62 555.98" stroke="hsl(71.10000000000002, 62.1%, 61.9%)" stroke-width="1.5"></path><path d="M370.8 509.14L338.77 691.22" stroke="hsl(71.10000000000002, 62.1%, 61.9%)" stroke-width="1.5"></path><path d="M338.77 691.22L338.77 691.22" stroke="hsl(71.10000000000002, 62.1%, 61.9%)" stroke-width="1.5"></path><path d="M535.62 555.98L535.62 555.98" stroke="hsl(71.10000000000002, 62.1%, 61.9%)" stroke-width="1.5"></path><path d="M535.62 555.98L645.33 527.95" stroke="hsl(71.10000000000002, 62.1%, 61.9%)" stroke-width="1.5"></path><path d="M708.54 373.04L708.54 373.04" stroke="hsl(71.10000000000002, 62.1%, 61.9%)" stroke-width="1.5"></path><path d="M708.54 373.04L844.61 388.23" stroke="hsl(71.10000000000002, 62.1%, 61.9%)" stroke-width="1.5"></path><path d="M708.54 373.04L812.67 501.82" stroke="hsl(71.10000000000002, 62.1%, 61.9%)" stroke-width="1.5"></path><path d="M708.54 373.04L645.33 527.95" stroke="hsl(71.10000000000002, 62.1%, 61.9%)" stroke-width="1.5"></path><path d="M708.54 373.04L535.62 555.98" stroke="hsl(71.10000000000002, 62.1%, 61.9%)" stroke-width="1.5"></path><path d="M708.54 373.04L962.5 375.72" stroke="hsl(71.10000000000002, 62.1%, 61.9%)" stroke-width="1.5"></path><path d="M645.33 527.95L645.33 527.95" stroke="hsl(71.10000000000002, 62.1%, 61.9%)" stroke-width="1.5"></path><path d="M844.61 388.23L844.61 388.23" stroke="hsl(71.10000000000002, 62.1%, 61.9%)" stroke-width="1.5"></path><path d="M844.61 388.23L812.67 501.82" stroke="hsl(71.10000000000002, 62.1%, 61.9%)" stroke-width="1.5"></path><path d="M844.61 388.23L962.5 375.72" stroke="hsl(71.10000000000002, 62.1%, 61.9%)" stroke-width="1.5"></path><path d="M844.61 388.23L961.56 550.56" stroke="hsl(71.10000000000002, 62.1%, 61.9%)" stroke-width="1.5"></path><path d="M844.61 388.23L645.33 527.95" stroke="hsl(71.10000000000002, 62.1%, 61.9%)" stroke-width="1.5"></path><path d="M812.67 501.82L812.67 501.82" stroke="hsl(71.10000000000002, 62.1%, 61.9%)" stroke-width="1.5"></path><path d="M812.67 501.82L961.56 550.56" stroke="hsl(71.10000000000002, 62.1%, 61.9%)" stroke-width="1.5"></path><path d="M812.67 501.82L645.33 527.95" stroke="hsl(71.10000000000002, 62.1%, 61.9%)" stroke-width="1.5"></path><path d="M812.67 501.82L823.13 688.02" stroke="hsl(71.10000000000002, 62.1%, 61.9%)" stroke-width="1.5"></path><path d="M823.13 688.02L823.13 688.02" stroke="hsl(71.10000000000002, 62.1%, 61.9%)" stroke-width="1.5"></path><path d="M823.13 688.02L967.66 666.9" stroke="hsl(71.10000000000002, 62.1%, 61.9%)" stroke-width="1.5"></path><path d="M823.13 688.02L961.56 550.56" stroke="hsl(71.10000000000002, 62.1%, 61.9%)" stroke-width="1.5"></path><path d="M823.13 688.02L645.33 527.95" stroke="hsl(71.10000000000002, 62.1%, 61.9%)" stroke-width="1.5"></path><path d="M823.13 688.02L559.15 651.52" stroke="hsl(71.10000000000002, 62.1%, 61.9%)" stroke-width="1.5"></path><path d="M962.5 375.72L962.5 375.72" stroke="hsl(71.10000000000002, 62.1%, 61.9%)" stroke-width="1.5"></path><path d="M962.5 375.72L961.56 550.56" stroke="hsl(71.10000000000002, 62.1%, 61.9%)" stroke-width="1.5"></path><path d="M962.5 375.72L812.67 501.82" stroke="hsl(71.10000000000002, 62.1%, 61.9%)" stroke-width="1.5"></path><path d="M961.56 550.56L961.56 550.56" stroke="hsl(71.10000000000002, 62.1%, 61.9%)" stroke-width="1.5"></path><path d="M961.56 550.56L967.66 666.9" stroke="hsl(71.10000000000002, 62.1%, 61.9%)" stroke-width="1.5"></path><path d="M967.66 666.9L967.66 666.9" stroke="hsl(71.10000000000002, 62.1%, 61.9%)" stroke-width="1.5"></path><path d="M967.66 666.9L1111.51 671.84" stroke="hsl(71.10000000000002, 62.1%, 61.9%)" stroke-width="1.5"></path><path d="M1160.29 243.38L1160.29 243.38" stroke="hsl(71.10000000000002, 62.1%, 61.9%)" stroke-width="1.5"></path><path d="M1160.29 243.38L1248.26 387.57" stroke="hsl(71.10000000000002, 62.1%, 61.9%)" stroke-width="1.5"></path><path d="M1160.29 243.38L1104.88 408.07" stroke="hsl(71.10000000000002, 62.1%, 61.9%)" stroke-width="1.5"></path><path d="M1160.29 243.38L1311.61 80.05" stroke="hsl(71.10000000000002, 62.1%, 61.9%)" stroke-width="1.5"></path><path d="M1111.51 671.84L1111.51 671.84" stroke="hsl(71.10000000000002, 62.1%, 61.9%)" stroke-width="1.5"></path><path d="M1266.1 -83.28L1266.1 -83.28" stroke="hsl(71.10000000000002, 62.1%, 61.9%)" stroke-width="1.5"></path><path d="M1266.1 -83.28L1311.61 80.05" stroke="hsl(71.10000000000002, 62.1%, 61.9%)" stroke-width="1.5"></path><path d="M1266.1 -83.28L1460.29 -69.14" stroke="hsl(71.10000000000002, 62.1%, 61.9%)" stroke-width="1.5"></path><path d="M1266.1 -83.28L1417.68 46.29" stroke="hsl(71.10000000000002, 62.1%, 61.9%)" stroke-width="1.5"></path><path d="M1311.61 80.05L1311.61 80.05" stroke="hsl(71.10000000000002, 62.1%, 61.9%)" stroke-width="1.5"></path><path d="M1311.61 80.05L1417.68 46.29" stroke="hsl(71.10000000000002, 62.1%, 61.9%)" stroke-width="1.5"></path><path d="M1311.61 80.05L1408.94 227.5" stroke="hsl(71.10000000000002, 62.1%, 61.9%)" stroke-width="1.5"></path><path d="M1311.61 80.05L1460.29 -69.14" stroke="hsl(71.10000000000002, 62.1%, 61.9%)" stroke-width="1.5"></path><path d="M1282.12 546.37L1282.12 546.37" stroke="hsl(71.10000000000002, 62.1%, 61.9%)" stroke-width="1.5"></path><path d="M1282.12 546.37L1448.83 521.35" stroke="hsl(71.10000000000002, 62.1%, 61.9%)" stroke-width="1.5"></path><path d="M1282.12 546.37L1419.02 672.42" stroke="hsl(71.10000000000002, 62.1%, 61.9%)" stroke-width="1.5"></path><path d="M1282.12 546.37L1111.51 671.84" stroke="hsl(71.10000000000002, 62.1%, 61.9%)" stroke-width="1.5"></path><path d="M1282.12 546.37L1104.88 408.07" stroke="hsl(71.10000000000002, 62.1%, 61.9%)" stroke-width="1.5"></path><path d="M1460.29 -69.14L1460.29 -69.14" stroke="hsl(71.10000000000002, 62.1%, 61.9%)" stroke-width="1.5"></path><path d="M1460.29 -69.14L1417.68 46.29" stroke="hsl(71.10000000000002, 62.1%, 61.9%)" stroke-width="1.5"></path><path d="M1460.29 -69.14L1408.94 227.5" stroke="hsl(71.10000000000002, 62.1%, 61.9%)" stroke-width="1.5"></path><path d="M1417.68 46.29L1417.68 46.29" stroke="hsl(71.10000000000002, 62.1%, 61.9%)" stroke-width="1.5"></path><path d="M1417.68 46.29L1408.94 227.5" stroke="hsl(71.10000000000002, 62.1%, 61.9%)" stroke-width="1.5"></path><path d="M1417.68 46.29L1295.68 232.12" stroke="hsl(71.10000000000002, 62.1%, 61.9%)" stroke-width="1.5"></path><path d="M1408.94 227.5L1408.94 227.5" stroke="hsl(71.10000000000002, 62.1%, 61.9%)" stroke-width="1.5"></path><path d="M1408.94 227.5L1449.25 379.99" stroke="hsl(71.10000000000002, 62.1%, 61.9%)" stroke-width="1.5"></path><path d="M1408.94 227.5L1604.35 221.52" stroke="hsl(71.10000000000002, 62.1%, 61.9%)" stroke-width="1.5"></path><path d="M1449.25 379.99L1449.25 379.99" stroke="hsl(71.10000000000002, 62.1%, 61.9%)" stroke-width="1.5"></path><path d="M1449.25 379.99L1448.83 521.35" stroke="hsl(71.10000000000002, 62.1%, 61.9%)" stroke-width="1.5"></path><path d="M1448.83 521.35L1448.83 521.35" stroke="hsl(71.10000000000002, 62.1%, 61.9%)" stroke-width="1.5"></path><path d="M1448.83 521.35L1549.4 518.37" stroke="hsl(71.10000000000002, 62.1%, 61.9%)" stroke-width="1.5"></path><path d="M1604.35 221.52L1604.35 221.52" stroke="hsl(71.10000000000002, 62.1%, 61.9%)" stroke-width="1.5"></path><path d="M1549.4 518.37L1549.4 518.37" stroke="hsl(71.10000000000002, 62.1%, 61.9%)" stroke-width="1.5"></path><path d="M1549.4 518.37L1449.25 379.99" stroke="hsl(71.10000000000002, 62.1%, 61.9%)" stroke-width="1.5"></path><path d="M1607.19 699.57L1607.19 699.57" stroke="hsl(71.10000000000002, 62.1%, 61.9%)" stroke-width="1.5"></path><path d="M1607.19 699.57L1419.02 672.42" stroke="hsl(71.10000000000002, 62.1%, 61.9%)" stroke-width="1.5"></path><circle r="25" cx="514.07" cy="401.08" fill="url(&quot;#SvgjsRadialGradient1007&quot;)"></circle><circle r="25" cx="559.15" cy="651.52" fill="url(&quot;#SvgjsRadialGradient1007&quot;)"></circle><circle r="25" cx="690.95" cy="678.99" fill="url(&quot;#SvgjsRadialGradient1007&quot;)"></circle><circle r="25" cx="1104.88" cy="408.07" fill="url(&quot;#SvgjsRadialGradient1007&quot;)"></circle><circle r="25" cx="1295.68" cy="232.12" fill="url(&quot;#SvgjsRadialGradient1007&quot;)"></circle><circle r="25" cx="1248.26" cy="387.57" fill="url(&quot;#SvgjsRadialGradient1007&quot;)"></circle><circle r="25" cx="1261.5" cy="702.63" fill="url(&quot;#SvgjsRadialGradient1007&quot;)"></circle><circle r="25" cx="1419.02" cy="672.42" fill="url(&quot;#SvgjsRadialGradient1007&quot;)"></circle><circle r="25" cx="1585.84" cy="388.55" fill="url(&quot;#SvgjsRadialGradient1007&quot;)"></circle><circle r="5" cx="-80.95" cy="562.45" fill="#d4e297"></circle><circle r="5" cx="93.27" cy="507.96" fill="#d4e297"></circle><circle r="5" cx="70.44" cy="677.54" fill="#d4e297"></circle><circle r="5" cx="231.88" cy="712.01" fill="#d4e297"></circle><circle r="5" cx="370.8" cy="509.14" fill="#d4e297"></circle><circle r="5" cx="338.77" cy="691.22" fill="#d4e297"></circle><circle r="5" cx="535.62" cy="555.98" fill="#d4e297"></circle><circle r="5" cx="708.54" cy="373.04" fill="#d4e297"></circle><circle r="5" cx="645.33" cy="527.95" fill="#d4e297"></circle><circle r="5" cx="844.61" cy="388.23" fill="#d4e297"></circle><circle r="5" cx="812.67" cy="501.82" fill="#d4e297"></circle><circle r="5" cx="823.13" cy="688.02" fill="#d4e297"></circle><circle r="5" cx="962.5" cy="375.72" fill="#d4e297"></circle><circle r="5" cx="961.56" cy="550.56" fill="#d4e297"></circle><circle r="5" cx="967.66" cy="666.9" fill="#d4e297"></circle><circle r="5" cx="1160.29" cy="243.38" fill="#d4e297"></circle><circle r="5" cx="1111.51" cy="671.84" fill="#d4e297"></circle><circle r="5" cx="1266.1" cy="-83.28" fill="#d4e297"></circle><circle r="5" cx="1311.61" cy="80.05" fill="#d4e297"></circle><circle r="5" cx="1282.12" cy="546.37" fill="#d4e297"></circle><circle r="5" cx="1460.29" cy="-69.14" fill="#d4e297"></circle><circle r="5" cx="1417.68" cy="46.29" fill="#d4e297"></circle><circle r="5" cx="1408.94" cy="227.5" fill="#d4e297"></circle><circle r="5" cx="1449.25" cy="379.99" fill="#d4e297"></circle><circle r="5" cx="1448.83" cy="521.35" fill="#d4e297"></circle><circle r="5" cx="1604.35" cy="221.52" fill="#d4e297"></circle><circle r="5" cx="1549.4" cy="518.37" fill="#d4e297"></circle><circle r="5" cx="1607.19" cy="699.57" fill="#d4e297"></circle></g><defs><mask id="SvgjsMask1006"><rect width="1440" height="560" fill="#ffffff"></rect></mask><radialGradient id="SvgjsRadialGradient1007"><stop stop-color="#ffffff" offset="0.1"></stop><stop stop-color="rgba(169, 197, 46, 1)" offset="0.2"></stop><stop stop-color="rgba(169, 197, 46, 0)" offset="1"></stop></radialGradient></defs></svg>